<svg xmlns="http://www.w3.org/2000/svg" viewBox="0 0 780 425" font-family="system-ui, sans-serif">
  <!--
    Structure r2: parallel-chord truss.
    Width 12 m (3 panels of 4 m), height 4 m. Vertical and horizontal bars = 4 m.
    World in metres, y up. Transform: sx = 90 + x*50 ; sy = 290 - y*50
    Nodes:
      A (0,0)  -> ( 90,290)      E (0,4)  -> ( 90, 90)
      C (4,0)  -> (290,290)      F (4,4)  -> (290, 90)
      B (8,0)  -> (490,290)      G (8,4)  -> (490, 90)
      D (12,0) -> (690,290)      H (12,4) -> (690, 90)
    Bars:
      floor (bottom chord): b1, b2, b3
      roof  (top chord): b11, b12, b13
      middle (posts + diagonals): b4..b10
      Diagonals: b5 and b7 descend to the left; b9 (last panel) descends to the right.
    Supports:
      A -> roller support (vertical reaction only)
      B -> pinned support
    Support reactions:
      A: V_A = 10 T downward
      B: H_B = 10 T to the left ; V_B = 50 T upward
    Loads:
      C (4,0)  : 10 T downward
      F (4,4)  :  5 T downward
      H (12,4) : 10 T to the right
      D (12,0) : 25 T downward
  -->

  <rect x="0" y="0" width="780" height="425" fill="#ffffff"/>

  <!-- ===== Dimensions ===== -->
  <g stroke="#9aa0a6" stroke-width="1" fill="#5f6368" font-size="12">
    <!-- width: 4 | 4 | 4 -->
    <line x1="90"  y1="45" x2="690" y2="45"/>
    <line x1="90"  y1="40" x2="90"  y2="50"/>
    <line x1="290" y1="40" x2="290" y2="50"/>
    <line x1="490" y1="40" x2="490" y2="50"/>
    <line x1="690" y1="40" x2="690" y2="50"/>
    <text x="190" y="38" text-anchor="middle">4.00</text>
    <text x="390" y="38" text-anchor="middle">4.00</text>
    <text x="590" y="38" text-anchor="middle">4.00</text>

    <!-- height: 4.00 m -->
    <line x1="730" y1="90"  x2="730" y2="290"/>
    <line x1="725" y1="90"  x2="735" y2="90"/>
    <line x1="725" y1="290" x2="735" y2="290"/>
    <text x="743" y="190" text-anchor="middle" transform="rotate(-90 743 190)">4.00 m</text>
  </g>

  <!-- ===== Truss: two-force members (double hinge) ===== -->
  <g stroke="#1a1a1a" stroke-width="3" stroke-linecap="round">
    <!-- bottom chord (floor): b1, b2, b3 -->
    <line x1="90"  y1="290" x2="290" y2="290"/>
    <line x1="290" y1="290" x2="490" y2="290"/>
    <line x1="490" y1="290" x2="690" y2="290"/>
    <!-- top chord (roof): b11, b12, b13 -->
    <line x1="90"  y1="90"  x2="290" y2="90"/>
    <line x1="290" y1="90"  x2="490" y2="90"/>
    <line x1="490" y1="90"  x2="690" y2="90"/>
    <!-- posts: b4, b6, b8, b10 -->
    <line x1="90"  y1="90"  x2="90"  y2="290"/>
    <line x1="290" y1="90"  x2="290" y2="290"/>
    <line x1="490" y1="90"  x2="490" y2="290"/>
    <line x1="690" y1="90"  x2="690" y2="290"/>
    <!-- diagonals: b5, b7 descend to the left; b9 (last panel) descends to the right -->
    <line x1="290" y1="90"  x2="90"  y2="290"/>
    <line x1="490" y1="90"  x2="290" y2="290"/>
    <line x1="490" y1="90"  x2="690" y2="290"/>
  </g>

  <!-- ===== Nodes ===== -->
  <g fill="#000000">
    <circle cx="90"  cy="290" r="4"/>
    <circle cx="290" cy="290" r="4"/>
    <circle cx="490" cy="290" r="4"/>
    <circle cx="690" cy="290" r="4"/>
    <circle cx="90"  cy="90"  r="4"/>
    <circle cx="290" cy="90"  r="4"/>
    <circle cx="490" cy="90"  r="4"/>
    <circle cx="690" cy="90"  r="4"/>
  </g>

  <!-- ===== Node labels ===== -->
  <g font-size="13" font-weight="600" fill="#6a1b9a">
    <text x="78"  y="296" text-anchor="end">A</text>
    <text x="276" y="309" text-anchor="end">C</text>
    <text x="466" y="309" text-anchor="end">B</text>
    <text x="702" y="296" text-anchor="start">D</text>
    <text x="78"  y="86"  text-anchor="end">E</text>
    <text x="276" y="84"  text-anchor="end">F</text>
    <text x="490" y="80"  text-anchor="middle">G</text>
    <text x="686" y="78"  text-anchor="end">H</text>
  </g>

  <!-- ===== Bar names (b with subscript) ===== -->
  <g fill="#6a1b9a" font-size="13" font-style="italic" font-weight="600">
    <!-- floor -->
    <text x="190" y="308" text-anchor="middle">b<tspan font-size="9" dy="3">1</tspan></text>
    <text x="390" y="308" text-anchor="middle">b<tspan font-size="9" dy="3">2</tspan></text>
    <text x="590" y="308" text-anchor="middle">b<tspan font-size="9" dy="3">3</tspan></text>
    <!-- middle: posts and diagonals (left -> right) -->
    <text x="80"  y="190" text-anchor="end">b<tspan font-size="9" dy="3">4</tspan></text>
    <text x="205" y="205" text-anchor="start">b<tspan font-size="9" dy="3">5</tspan></text>
    <text x="280" y="165" text-anchor="end">b<tspan font-size="9" dy="3">6</tspan></text>
    <text x="405" y="205" text-anchor="start">b<tspan font-size="9" dy="3">7</tspan></text>
    <text x="480" y="165" text-anchor="end">b<tspan font-size="9" dy="3">8</tspan></text>
    <text x="618" y="198" text-anchor="start">b<tspan font-size="9" dy="3">9</tspan></text>
    <text x="700" y="190" text-anchor="start">b<tspan font-size="9" dy="3">10</tspan></text>
    <!-- roof -->
    <text x="190" y="78" text-anchor="middle">b<tspan font-size="9" dy="3">11</tspan></text>
    <text x="390" y="78" text-anchor="middle">b<tspan font-size="9" dy="3">12</tspan></text>
    <text x="590" y="78" text-anchor="middle">b<tspan font-size="9" dy="3">13</tspan></text>
  </g>

  <!-- ===== Supports ===== -->
  <g stroke="#1a1a1a" stroke-width="2" fill="#ffffff">
    <!-- A: roller support -->
    <polygon points="90,290 81,303 99,303"/>
    <circle cx="85" cy="307" r="3"/>
    <circle cx="95" cy="307" r="3"/>
    <line x1="75" y1="311" x2="105" y2="311"/>
    <line x1="79"  y1="311" x2="73" y2="318"/>
    <line x1="87"  y1="311" x2="81" y2="318"/>
    <line x1="95"  y1="311" x2="89" y2="318"/>
    <line x1="103" y1="311" x2="97" y2="318"/>
    <!-- B: pinned support -->
    <polygon points="490,290 481,303 499,303"/>
    <line x1="475" y1="303" x2="505" y2="303"/>
    <line x1="479" y1="303" x2="473" y2="310"/>
    <line x1="487" y1="303" x2="481" y2="310"/>
    <line x1="495" y1="303" x2="489" y2="310"/>
    <line x1="503" y1="303" x2="497" y2="310"/>
  </g>

  <!-- ===== Loads ===== -->
  <g stroke="#c0392b" fill="#c0392b" font-size="13" font-weight="700">
    <!-- C: 10 T downward -->
    <line x1="290" y1="290" x2="290" y2="335" stroke-width="2.5"/>
    <polygon points="290,340 285,329 295,329" stroke="none"/>
    <text x="302" y="324" text-anchor="start" stroke="none">10 T</text>
    <!-- F: 5 T downward -->
    <line x1="290" y1="45" x2="290" y2="85" stroke-width="2.5"/>
    <polygon points="290,90 285,79 295,79" stroke="none"/>
    <text x="302" y="56" text-anchor="start" stroke="none">5 T</text>
    <!-- D: 25 T downward -->
    <line x1="690" y1="290" x2="690" y2="335" stroke-width="2.5"/>
    <polygon points="690,340 685,329 695,329" stroke="none"/>
    <text x="702" y="324" text-anchor="start" stroke="none">25 T</text>
    <!-- H: 10 T to the right -->
    <line x1="690" y1="90" x2="735" y2="90" stroke-width="2.5"/>
    <polygon points="740,90 729,85 729,95" stroke="none"/>
    <text x="712" y="78" text-anchor="middle" stroke="none">10 T</text>
  </g>

  <!-- ===== Support reactions (applied at the nodes: tip at the node) ===== -->
  <g stroke="#1a73e8" fill="#1a73e8" font-size="13" font-weight="700">
    <!-- A: V_A = 10 T downward (tip at A, shaft trailing upward) -->
    <line x1="90" y1="240" x2="90" y2="279" stroke-width="2.5"/>
    <polygon points="90,290 84,278 96,278" stroke="none"/>
    <text x="82" y="262" text-anchor="end" stroke="none">V<tspan font-size="10" dy="4">A</tspan> = 10 T</text>
    <!-- B: V_B = 50 T upward (tip at B, shaft trailing downward) -->
    <line x1="490" y1="340" x2="490" y2="301" stroke-width="2.5"/>
    <polygon points="490,290 484,302 496,302" stroke="none"/>
    <text x="500" y="330" text-anchor="start" stroke="none">V<tspan font-size="10" dy="4">B</tspan> = 50 T</text>
    <!-- B: H_B = 10 T to the left (tip at B, shaft trailing to the right) -->
    <line x1="538" y1="290" x2="501" y2="290" stroke-width="2.5"/>
    <polygon points="490,290 502,284 502,296" stroke="none"/>
    <text x="512" y="282" text-anchor="start" stroke="none">H<tspan font-size="10" dy="4">B</tspan> = 10 T</text>
  </g>

  <text x="390" y="405" text-anchor="middle" fill="#5f6368" font-size="13">
    truss 12 m x 4 m (3 panels); loads (red), supports A (roller) and B (pinned), reactions (blue)
  </text>
</svg>
