<svg xmlns="http://www.w3.org/2000/svg" viewBox="0 0 780 425" font-family="system-ui, sans-serif">
  <!--
    Estructura r2: reticulado de cordones paralelos.
    Ancho 12 m (3 paneles de 4 m), altura 4 m. Barras vert. y horiz. = 4 m.
    Mundo en metros, y hacia arriba. Transform: sx = 90 + x*50 ; sy = 290 - y*50
    Nodos:
      A (0,0)  -> ( 90,290)      E (0,4)  -> ( 90, 90)
      C (4,0)  -> (290,290)      F (4,4)  -> (290, 90)
      B (8,0)  -> (490,290)      G (8,4)  -> (490, 90)
      D (12,0) -> (690,290)      H (12,4) -> (690, 90)
    Barras:
      piso  (cordon inferior): b1, b2, b3
      techo (cordon superior): b11, b12, b13
      medio (montantes + diagonales): b4..b10
      Diagonales: b5 y b7 bajan hacia la izquierda; b9 (ultimo panel) baja hacia la derecha.
    Apoyos:
      A -> apoyo movil (solo reaccion vertical)
      B -> apoyo fijo (articulado)
    Reacciones de vinculo:
      A: V_A = 10 T hacia abajo
      B: H_B = 10 T hacia la izquierda ; V_B = 50 T hacia arriba
    Cargas:
      C (4,0)  : 10 T hacia abajo
      F (4,4)  :  5 T hacia abajo
      H (12,4) : 10 T hacia la derecha
      D (12,0) : 25 T hacia abajo
  -->

  <rect x="0" y="0" width="780" height="425" fill="#ffffff"/>

  <!-- ===== Cotas / dimensiones ===== -->
  <g stroke="#9aa0a6" stroke-width="1" fill="#5f6368" font-size="12">
    <!-- ancho: 4 | 4 | 4 -->
    <line x1="90"  y1="45" x2="690" y2="45"/>
    <line x1="90"  y1="40" x2="90"  y2="50"/>
    <line x1="290" y1="40" x2="290" y2="50"/>
    <line x1="490" y1="40" x2="490" y2="50"/>
    <line x1="690" y1="40" x2="690" y2="50"/>
    <text x="190" y="38" text-anchor="middle">4.00</text>
    <text x="390" y="38" text-anchor="middle">4.00</text>
    <text x="590" y="38" text-anchor="middle">4.00</text>

    <!-- altura: 4.00 m -->
    <line x1="730" y1="90"  x2="730" y2="290"/>
    <line x1="725" y1="90"  x2="735" y2="90"/>
    <line x1="725" y1="290" x2="735" y2="290"/>
    <text x="743" y="190" text-anchor="middle" transform="rotate(-90 743 190)">4.00 m</text>
  </g>

  <!-- ===== Reticulado: bielas (doble articulacion) ===== -->
  <g stroke="#0b8a8a" stroke-width="3" stroke-linecap="round">
    <!-- cordon inferior (piso): b1, b2, b3 -->
    <line x1="90"  y1="290" x2="290" y2="290"/>
    <line x1="290" y1="290" x2="490" y2="290"/>
    <line x1="490" y1="290" x2="690" y2="290"/>
    <!-- cordon superior (techo): b11, b12, b13 -->
    <line x1="90"  y1="90"  x2="290" y2="90"/>
    <line x1="290" y1="90"  x2="490" y2="90"/>
    <line x1="490" y1="90"  x2="690" y2="90"/>
    <!-- montantes: b4, b6, b8, b10 -->
    <line x1="90"  y1="90"  x2="90"  y2="290"/>
    <line x1="290" y1="90"  x2="290" y2="290"/>
    <line x1="490" y1="90"  x2="490" y2="290"/>
    <line x1="690" y1="90"  x2="690" y2="290"/>
    <!-- diagonales: b5, b7 bajan a la izquierda; b9 (ultimo panel) baja a la derecha -->
    <line x1="290" y1="90"  x2="90"  y2="290"/>
    <line x1="490" y1="90"  x2="290" y2="290"/>
    <line x1="490" y1="90"  x2="690" y2="290"/>
  </g>

  <!-- ===== Nudos ===== -->
  <g fill="#0b8a8a">
    <circle cx="90"  cy="290" r="4"/>
    <circle cx="290" cy="290" r="4"/>
    <circle cx="490" cy="290" r="4"/>
    <circle cx="690" cy="290" r="4"/>
    <circle cx="90"  cy="90"  r="4"/>
    <circle cx="290" cy="90"  r="4"/>
    <circle cx="490" cy="90"  r="4"/>
    <circle cx="690" cy="90"  r="4"/>
  </g>

  <!-- ===== Etiquetas de nudos ===== -->
  <g font-size="13" font-weight="600" fill="#1a73e8">
    <text x="78"  y="296" text-anchor="end">A</text>
    <text x="276" y="309" text-anchor="end">C</text>
    <text x="466" y="309" text-anchor="end">B</text>
    <text x="702" y="296" text-anchor="start">D</text>
    <text x="78"  y="86"  text-anchor="end">E</text>
    <text x="276" y="84"  text-anchor="end">F</text>
    <text x="490" y="80"  text-anchor="middle">G</text>
    <text x="686" y="78"  text-anchor="end">H</text>
  </g>

  <!-- ===== Nombres de barras (b con subindice) ===== -->
  <g fill="#c0392b" font-size="13" font-style="italic" font-weight="600">
    <!-- piso -->
    <text x="190" y="308" text-anchor="middle">b<tspan font-size="9" dy="3">1</tspan></text>
    <text x="390" y="308" text-anchor="middle">b<tspan font-size="9" dy="3">2</tspan></text>
    <text x="590" y="308" text-anchor="middle">b<tspan font-size="9" dy="3">3</tspan></text>
    <!-- medio: montantes y diagonales (izq -> der) -->
    <text x="80"  y="190" text-anchor="end">b<tspan font-size="9" dy="3">4</tspan></text>
    <text x="205" y="205" text-anchor="start">b<tspan font-size="9" dy="3">5</tspan></text>
    <text x="280" y="165" text-anchor="end">b<tspan font-size="9" dy="3">6</tspan></text>
    <text x="405" y="205" text-anchor="start">b<tspan font-size="9" dy="3">7</tspan></text>
    <text x="480" y="165" text-anchor="end">b<tspan font-size="9" dy="3">8</tspan></text>
    <text x="618" y="198" text-anchor="start">b<tspan font-size="9" dy="3">9</tspan></text>
    <text x="700" y="190" text-anchor="start">b<tspan font-size="9" dy="3">10</tspan></text>
    <!-- techo -->
    <text x="190" y="78" text-anchor="middle">b<tspan font-size="9" dy="3">11</tspan></text>
    <text x="390" y="78" text-anchor="middle">b<tspan font-size="9" dy="3">12</tspan></text>
    <text x="590" y="78" text-anchor="middle">b<tspan font-size="9" dy="3">13</tspan></text>
  </g>

  <!-- ===== Apoyos ===== -->
  <g stroke="#1a1a1a" stroke-width="2" fill="#ffffff">
    <!-- A: apoyo movil (rodillo) -->
    <polygon points="90,290 81,303 99,303"/>
    <circle cx="85" cy="307" r="3"/>
    <circle cx="95" cy="307" r="3"/>
    <line x1="75" y1="311" x2="105" y2="311"/>
    <line x1="79"  y1="311" x2="73" y2="318"/>
    <line x1="87"  y1="311" x2="81" y2="318"/>
    <line x1="95"  y1="311" x2="89" y2="318"/>
    <line x1="103" y1="311" x2="97" y2="318"/>
    <!-- B: apoyo fijo (articulado) -->
    <polygon points="490,290 481,303 499,303"/>
    <line x1="475" y1="303" x2="505" y2="303"/>
    <line x1="479" y1="303" x2="473" y2="310"/>
    <line x1="487" y1="303" x2="481" y2="310"/>
    <line x1="495" y1="303" x2="489" y2="310"/>
    <line x1="503" y1="303" x2="497" y2="310"/>
  </g>

  <!-- ===== Cargas ===== -->
  <g stroke="#6a1b9a" fill="#6a1b9a" font-size="13" font-weight="700">
    <!-- C: 10 T hacia abajo -->
    <line x1="290" y1="290" x2="290" y2="335" stroke-width="2.5"/>
    <polygon points="290,340 285,329 295,329" stroke="none"/>
    <text x="302" y="324" text-anchor="start" stroke="none">10 T</text>
    <!-- F: 5 T hacia abajo -->
    <line x1="290" y1="45" x2="290" y2="85" stroke-width="2.5"/>
    <polygon points="290,90 285,79 295,79" stroke="none"/>
    <text x="302" y="56" text-anchor="start" stroke="none">5 T</text>
    <!-- D: 25 T hacia abajo -->
    <line x1="690" y1="290" x2="690" y2="335" stroke-width="2.5"/>
    <polygon points="690,340 685,329 695,329" stroke="none"/>
    <text x="702" y="324" text-anchor="start" stroke="none">25 T</text>
    <!-- H: 10 T hacia la derecha -->
    <line x1="690" y1="90" x2="735" y2="90" stroke-width="2.5"/>
    <polygon points="740,90 729,85 729,95" stroke="none"/>
    <text x="712" y="78" text-anchor="middle" stroke="none">10 T</text>
  </g>

  <!-- ===== Reacciones de vinculo ===== -->
  <g stroke="#2e7d32" fill="#2e7d32" font-size="13" font-weight="700">
    <!-- A: V_A = 10 T hacia abajo -->
    <line x1="90" y1="326" x2="90" y2="356" stroke-width="2.5"/>
    <polygon points="90,361 85,350 95,350" stroke="none"/>
    <text x="102" y="352" text-anchor="start" stroke="none">V<tspan font-size="10" dy="4">A</tspan> = 10 T</text>
    <!-- B: V_B = 50 T hacia arriba -->
    <line x1="490" y1="361" x2="490" y2="326" stroke-width="2.5"/>
    <polygon points="490,321 485,332 495,332" stroke="none"/>
    <text x="498" y="358" text-anchor="start" stroke="none">V<tspan font-size="10" dy="4">B</tspan> = 50 T</text>
    <!-- B: H_B = 10 T hacia la izquierda -->
    <line x1="548" y1="338" x2="510" y2="338" stroke-width="2.5"/>
    <polygon points="505,338 516,333 516,343" stroke="none"/>
    <text x="552" y="342" text-anchor="start" stroke="none">H<tspan font-size="10" dy="4">B</tspan> = 10 T</text>
  </g>

  <text x="390" y="405" text-anchor="middle" fill="#5f6368" font-size="13">
    r2 — reticulado 12 m x 4 m (3 paneles); cargas (violeta), apoyos A (movil) y B (fijo), reacciones (verde)
  </text>
</svg>
